# xmcd CD database file
#
# Track frame offsets:
#	150
#	5705
#	22132
#	50677
#	52687
#	68827
#	81270
#	100857
#	103942
#	140315
#	143480
#	176082
#	177197
#	202080
#	204040
#	221550
#	222810
#	240095
#	242032
#	306555
#	309847
#
# Disc length: 4137 seconds
#
# Revision: 25
# Processed by: cddbd v1.5.2PL0 Copyright (c) Steve Scherf et al.
# Submitted via: CDex 1.51
#
DISCID=26102715
DTITLE=Duke Ellington - At Newport - Disc 1
DYEAR=1956
DGENRE=Jazz
TTITLE0=Star Spangled Banner
TTITLE1=Father Norman O'Connor Introduces Duke and The Orchestra
TTITLE2=Black and Tan Fantasy
TTITLE3=Duke Introduces Cook and Tune
TTITLE4=Tea For Two
TTITLE5=Father Norman O'Connor Talks About Festival
TTITLE6=Take The A Train
TTITLE7=Duke Introduces Festival Suite, Part I and Hamilton)
TTITLE8=Part I - Festival Junction
TTITLE9=Duke Announces Soloists, Introduces Part II
TTITLE10=Part II - Blues To Be There
TTITLE11=Duke Announces Nance and Procope, Introduces Part III
TTITLE12=Part III - Newport Up
TTITLE13=Duke Announces Hamilton, Gonsalves, and Terry, Duke Introduces Carney and Tune
TTITLE14=Sophisticated Lady
TTITLE15=Duke Announces Grissom and Tune
TTITLE16=Day In, Day Out
TTITLE17=Duke Introduces Tune(s) and Paul Gonsalves Interludes
TTITLE18=Diminuendo In Blue and Crescendo In Blue
TTITLE19=Announcements, Pandemonium
TTITLE20=Pause Track
EXTD=YEAR: 1956
EXTT0=
EXTT1=
EXTT2=
EXTT3=
EXTT4=
EXTT5=
EXTT6=
EXTT7=
EXTT8=
EXTT9=
EXTT10=
EXTT11=
EXTT12=
EXTT13=
EXTT14=
EXTT15=
EXTT16=
EXTT17=
EXTT18=
EXTT19=
EXTT20=
PLAYORDER=
